<?xml version="1.0" encoding="UTF-8"?>
<svg version="1.1" xmlns="http://www.w3.org/2000/svg" width="512" height="512">
<path d="M0 0 C0.87696533 0.00757324 1.75393066 0.01514648 2.6574707 0.02294922 C9.43084031 0.19487171 15.10377379 1.177276 21.125 4.4375 C22.28322266 5.05625 22.28322266 5.05625 23.46484375 5.6875 C34.95768 12.60284763 42.13069342 23.13516345 45.4375 36 C47.30790019 46.1433241 45.96111353 56.02110321 41.78515625 65.46875 C40.77101216 68.48436948 40.77101216 68.48436948 42.58203125 71.078125 C43.35933594 71.93921875 44.13664062 72.8003125 44.9375 73.6875 C45.77925781 74.64140625 46.62101562 75.5953125 47.48828125 76.578125 C48.35839844 77.52171875 49.22851562 78.4653125 50.125 79.4375 C51.62528239 81.10391247 53.12529332 82.77056939 54.625 84.4375 C55.73875 85.65953125 55.73875 85.65953125 56.875 86.90625 C59.99432876 90.41549486 62.92249133 94.06912123 65.875 97.71875 C68.06001569 100.35897729 70.31671391 102.9047972 72.625 105.4375 C76.54391252 109.73741791 80.21670869 114.19669547 83.875 118.71875 C86.06001569 121.35897729 88.31671391 123.9047972 90.625 126.4375 C94.54391252 130.73741791 98.21670869 135.19669547 101.875 139.71875 C104.06001569 142.35897729 106.31671391 144.9047972 108.625 147.4375 C112.54391252 151.73741791 116.21670869 156.19669547 119.875 160.71875 C122.76095147 164.20594136 125.80200111 167.53508894 128.8515625 170.87890625 C132.0843237 174.51715124 135.13313104 178.29529763 138.1796875 182.08984375 C140.01824251 184.39822797 140.01824251 184.39822797 141.8828125 186.12890625 C143.125 187.4375 143.125 187.4375 143.125 189.4375 C144.0221875 189.03917969 144.919375 188.64085937 145.84375 188.23046875 C166.43108024 179.37264224 188.00458149 177.26989986 209.3125 185.6875 C229.36660447 194.7172379 244.2739955 208.70247038 252.38378906 229.29907227 C255.45739665 238.16657188 256.62752624 246.51413916 256.5 255.875 C256.48259766 257.52230103 256.48259766 257.52230103 256.46484375 259.20288086 C256.09875792 277.33624252 250.01350869 292.70910306 238.125 306.4375 C237.48691406 307.2625 236.84882813 308.0875 236.19140625 308.9375 C224.65740132 322.89168366 205.6405693 330.34345987 188.125 332.4375 C171.83227543 333.4770358 157.84292986 329.97175334 143.125 323.4375 C142.87878906 324.00339844 142.63257813 324.56929688 142.37890625 325.15234375 C140.90963776 327.82998258 139.14747565 329.76793612 137.0625 332 C133.79481527 335.56046928 130.66020807 339.1768292 127.625 342.9375 C124.01467558 347.40026213 120.24072071 351.66469533 116.375 355.90625 C114.04637947 358.5259481 111.82937053 361.2126531 109.625 363.9375 C106.01467558 368.40026213 102.24072071 372.66469533 98.375 376.90625 C96.04637947 379.5259481 93.82937053 382.2126531 91.625 384.9375 C88.01467558 389.40026213 84.24072071 393.66469533 80.375 397.90625 C78.04637947 400.5259481 75.82937053 403.2126531 73.625 405.9375 C70.01467558 410.40026213 66.24072071 414.66469533 62.375 418.90625 C59.26531318 422.40464767 56.34485898 426.04528042 53.40625 429.6875 C50.35852999 433.36146385 47.13468665 436.85769622 43.875 440.34375 C41.93081969 442.41043358 41.93081969 442.41043358 41.125 445.4375 C41.85103848 448.01011745 41.85103848 448.01011745 43 450.75 C47.62327289 462.92993273 47.12078297 474.76927219 42.12890625 486.84765625 C36.25994738 498.362188 26.98445364 506.62021268 14.921875 511.06640625 C10.04157553 512.6331277 5.47791749 512.97675703 0.375 512.9375 C-0.49680908 512.93177979 -1.36861816 512.92605957 -2.2668457 512.92016602 C-16.09070251 512.54095797 -26.25360266 506.52143411 -35.625 496.6875 C-43.76963038 486.91772295 -46.59199312 474.89269473 -45.875 462.4375 C-45.62620103 460.07601823 -45.28218161 457.77879424 -44.875 455.4375 C-45.51985352 455.22641602 -46.16470703 455.01533203 -46.82910156 454.79785156 C-51.09074808 452.89452562 -54.76480067 450.30232166 -58.609375 447.671875 C-59.46822296 447.08976761 -60.32707092 446.50766022 -61.21194458 445.90791321 C-63.05894322 444.65549745 -64.90457139 443.40105867 -66.7489624 442.14480591 C-69.63861173 440.17823645 -72.53353877 438.21968761 -75.43017578 436.26342773 C-83.80893075 430.60211035 -92.17805518 424.92806687 -100.50341797 419.18844604 C-103.53724631 417.10035439 -106.58019367 415.02584096 -109.62512207 412.95397949 C-111.03726045 411.98770269 -112.44479346 411.01465949 -113.84753418 410.03479004 C-115.78072809 408.68486039 -117.72780992 407.35786385 -119.6796875 406.03515625 C-120.76233887 405.28758057 -121.84499023 404.54000488 -122.96044922 403.76977539 C-125.78808898 402.11216218 -125.78808898 402.11216218 -128.6394043 403.12011719 C-130.91493773 404.46103434 -132.81615204 405.89746721 -134.8125 407.625 C-150.9706704 420.40246588 -170.67285404 424.29707703 -190.875 422.4375 C-210.05917152 419.96820775 -227.12949908 409.74316477 -239.70703125 395.2734375 C-254.09803823 376.44844459 -258.40454906 355.39723219 -255.58642578 332.04638672 C-253.18182877 318.28692758 -246.1389257 305.7087652 -236.875 295.4375 C-236.28332031 294.75300781 -235.69164062 294.06851562 -235.08203125 293.36328125 C-224.86851126 282.27867213 -210.64570333 274.89928389 -195.875 272.4375 C-195.875 261.8775 -195.875 251.3175 -195.875 240.4375 C-199.835 239.4475 -203.795 238.4575 -207.875 237.4375 C-216.90591301 233.8487569 -224.65910955 228.94570242 -231.875 222.4375 C-232.55949219 221.84582031 -233.24398437 221.25414062 -233.94921875 220.64453125 C-246.2115904 209.34580374 -254.7895509 192.26351263 -256.09643555 175.61694336 C-256.96648254 152.82319624 -253.10418231 133.4015041 -237.984375 115.703125 C-225.28899259 102.0673439 -207.82602545 91.42070639 -188.7578125 90.31469727 C-167.14960394 89.57662619 -149.10579006 93.74048214 -131.875 107.4375 C-130.88886719 108.35982422 -130.88886719 108.35982422 -129.8828125 109.30078125 C-127.93324145 110.71594617 -127.93324145 110.71594617 -125.79541016 109.86889648 C-121.6507238 107.83743886 -117.94550245 105.27506533 -114.140625 102.671875 C-113.28164108 102.08985825 -112.42265717 101.50784149 -111.53764343 100.90818787 C-109.69045753 99.65593761 -107.84469359 98.40158775 -106.00021362 97.14535522 C-102.13745838 94.51504092 -98.26716593 91.89591797 -94.39732361 89.27604675 C-91.45375829 87.28294011 -88.5112737 85.28824509 -85.56884766 83.29345703 C-78.04629939 78.19646049 -70.51182109 73.11749493 -62.96008301 68.06384277 C-61.53086827 67.10629408 -60.10288302 66.14690768 -58.67614746 65.18566895 C-56.71272971 63.86295637 -54.74560157 62.54596402 -52.77734375 61.23046875 C-52.20231613 60.84128769 -51.62728851 60.45210663 -51.03483582 60.0511322 C-47.10347452 57.4375 -47.10347452 57.4375 -44.875 57.4375 C-45.04 56.48875 -45.205 55.54 -45.375 54.5625 C-47.07369922 42.09704543 -45.23398167 29.8795463 -37.875 19.4375 C-28.13706493 6.76854289 -16.07157801 -0.19537085 0 0 Z M-10.875 35.4375 C-13.60958033 39.19443103 -15.24665145 42.7953519 -15 47.5 C-14.09054672 52.20502871 -11.39619605 55.32094017 -7.875 58.4375 C-4.10851799 60.88062347 -0.49046776 60.7166307 3.83984375 60.109375 C8.73716526 58.66947876 11.95527175 55.28956973 14.625 51.0625 C15.63720163 45.74844146 14.84585708 41.80197947 12.375 37.125 C9.43398807 33.61212464 7.43325773 31.7506807 2.79296875 31.12109375 C-2.89944338 30.85652887 -6.59389182 31.36025412 -10.875 35.4375 Z M-32.67919922 84.00585938 C-34.21544329 85.04627413 -35.71482371 86.14253019 -37.1796875 87.28125 C-38.42671196 88.15484917 -38.42671196 88.15484917 -39.69892883 89.0460968 C-42.41766542 90.96545606 -45.08101518 92.94970122 -47.75 94.9375 C-49.62552649 96.27834312 -51.50489993 97.61382038 -53.38793945 98.9440918 C-57.27864187 101.69776437 -61.15238457 104.47316283 -65.01708984 107.26318359 C-73.34871455 113.24264342 -81.90208718 118.8858292 -90.46124268 124.53222656 C-94.60076378 127.2658121 -98.72733174 130.01879933 -102.85546875 132.76953125 C-105.19499509 134.32599877 -107.53498754 135.88176335 -109.875 137.4375 C-109.23206295 140.54227385 -108.58515082 143.6462063 -107.9375 146.75 C-107.75509766 147.63107422 -107.57269531 148.51214844 -107.38476562 149.41992188 C-107.20751953 150.26748047 -107.03027344 151.11503906 -106.84765625 151.98828125 C-106.68531494 152.76856689 -106.52297363 153.54885254 -106.35571289 154.3527832 C-105.86933396 156.6127971 -105.86933396 156.6127971 -104.875 159.4375 C-83.755 161.7475 -62.635 164.0575 -40.875 166.4375 C-38.895 163.4675 -36.915 160.4975 -34.875 157.4375 C-32.10608236 153.58439963 -29.4753136 151.24213184 -25.4375 148.75 C-24.51066406 148.16863281 -23.58382812 147.58726562 -22.62890625 146.98828125 C-19.875 145.4375 -19.875 145.4375 -14.875 143.4375 C-14.875 125.2875 -14.875 107.1375 -14.875 88.4375 C-26.3712789 81.34397313 -26.3712789 81.34397313 -32.67919922 84.00585938 Z M15.125 88.4375 C15.125 106.5875 15.125 124.7375 15.125 143.4375 C19.085 145.4175 23.045 147.3975 27.125 149.4375 C36.10097539 155.53438895 41.37917112 165.12292264 44.125 175.4375 C44.26827181 177.44494464 44.40621935 179.45277578 44.5390625 181.4609375 C45.26550303 185.9090517 45.26550303 185.9090517 48.15405273 189.17919922 C51.11364819 190.61217399 54.06016478 191.67001009 57.1875 192.6875 C58.97440749 193.33849556 60.7612529 193.98967353 62.54646301 194.64530945 C64.55376483 195.37574952 66.56806379 196.08439685 68.58300781 196.79345703 C73.73782322 198.63205265 78.81597184 200.6550922 83.8984375 202.68359375 C85.76161035 203.4248726 87.62481026 204.16608344 89.48803711 204.90722656 C90.87054153 205.45739441 90.87054153 205.45739441 92.28097534 206.01867676 C96.7547671 207.79808209 101.23038317 209.57185149 105.71484375 211.32421875 C106.50543182 211.63926865 107.2960199 211.95431854 108.11056519 212.27891541 C108.84485748 212.5641658 109.57914978 212.8494162 110.33569336 213.14331055 C110.97373398 213.39437057 111.6117746 213.6454306 112.26914978 213.90409851 C114.44389654 214.62165538 114.44389654 214.62165538 118.125 214.4375 C118.785 212.7875 119.445 211.1375 120.125 209.4375 C119.39796875 208.58929688 118.6709375 207.74109375 117.921875 206.8671875 C45.125 121.9375 45.125 121.9375 43.62402344 120.1862793 C42.62738594 119.02358966 41.63064173 117.86099149 40.63378906 116.69848633 C38.0814448 113.72172511 35.53116679 110.74323243 32.984375 107.76171875 C24.74639789 97.92537852 24.74639789 97.92537852 16.125 88.4375 C15.795 88.4375 15.465 88.4375 15.125 88.4375 Z M-208.875 131.4375 C-209.74125 132.015 -210.6075 132.5925 -211.5 133.1875 C-220.35291952 141.57447639 -224.83035811 151.95379759 -225.39648438 164.03930664 C-225.64555827 178.22317541 -221.01318485 188.83714662 -211.29296875 199.109375 C-202.62713099 207.2902632 -191.63782267 211.03876025 -179.875 211.4375 C-169.65626273 210.82117085 -161.11702458 207.43169969 -152.875 201.4375 C-151.6684375 200.633125 -151.6684375 200.633125 -150.4375 199.8125 C-142.37646588 192.34129764 -136.51523875 181.48771506 -135.63671875 170.44140625 C-135.32529314 156.00109234 -138.99254853 144.75949337 -148.9765625 134.21875 C-159.0407193 124.68802907 -170.25651136 120.90761765 -184.01953125 121.125 C-193.65926023 121.90633568 -201.25193664 125.69258268 -208.875 131.4375 Z M-11.6875 177.125 C-14.26185095 181.02330287 -15.31129502 183.7778692 -14.875 188.4375 C-13.57426626 192.85357135 -11.57367692 195.77209341 -8.25 198.9375 C-3.65681333 200.9789163 0.1770054 201.21112782 5.125 200.4375 C9.99361463 198.27367127 12.38986144 195.35438686 14.48828125 190.58203125 C15.5745488 186.92337551 15.47887185 184.0074463 14.125 180.4375 C11.85097036 176.79762237 9.34965557 174.14167695 5.625 172 C-1.67348047 170.35784189 -6.29745223 171.97450991 -11.6875 177.125 Z M-108.875 189.4375 C-109.68881795 191.37444678 -110.50100916 193.31207711 -111.3125 195.25 C-111.76496094 196.32894531 -112.21742188 197.40789062 -112.68359375 198.51953125 C-113.47875013 200.4670126 -114.20979648 202.44188943 -114.875 204.4375 C-114.18277344 205.03884766 -114.18277344 205.03884766 -113.4765625 205.65234375 C-109.57971006 209.04861238 -105.71250003 212.47424533 -101.875 215.9375 C-98.89437279 218.62733431 -95.90254767 221.30060364 -92.875 223.9375 C-88.97987189 227.33003093 -85.14717237 230.78944201 -81.3125 234.25 C-79.18082519 236.16304149 -77.0348089 238.05637612 -74.875 239.9375 C-70.97987189 243.33003093 -67.14717237 246.78944201 -63.3125 250.25 C-61.18082519 252.16304149 -59.0348089 254.05637612 -56.875 255.9375 C-52.97987189 259.33003093 -49.14717237 262.78944201 -45.3125 266.25 C-42.5495708 268.72955185 -39.75679667 271.17220086 -36.953125 273.60546875 C-33.64387347 276.52283523 -30.41009004 279.5236667 -27.171875 282.51953125 C-24.2790364 284.95107679 -24.2790364 284.95107679 -20.875 286.4375 C-18.68391019 285.78277023 -18.68391019 285.78277023 -16.375 284.5625 C-6.02265018 280.49649665 6.88887336 280.80089866 17.3125 284.5 C22.14975205 286.67614167 26.21771957 289.41987337 30.22265625 292.88671875 C32.19580777 294.49522215 33.74060876 295.54099008 36.125 296.4375 C38.41089241 296.06594777 38.41089241 296.06594777 40.75976562 295.04736328 C41.67592651 294.69263947 42.5920874 294.33791565 43.53601074 293.97244263 C44.5244397 293.57161469 45.51286865 293.17078674 46.53125 292.7578125 C47.56576294 292.35223114 48.60027588 291.94664978 49.6661377 291.52877808 C52.99163142 290.22103226 56.30819656 288.89211184 59.625 287.5625 C61.79762527 286.70433083 63.9707975 285.84754502 66.14453125 284.9921875 C70.41815898 283.30781373 74.68576113 281.60935828 78.94921875 279.89941406 C83.00261975 278.27553899 87.0664728 276.68490886 91.14453125 275.12402344 C92.07720825 274.76307587 93.00988525 274.4021283 93.9708252 274.03024292 C95.71829721 273.35475471 97.46906961 272.68772315 99.22351074 272.0305481 C101.22558324 271.25046082 103.18169391 270.35422891 105.125 269.4375 C106.12505304 266.43734088 106.24075585 264.46326244 106.22265625 261.33203125 C106.21943359 260.34912109 106.21621094 259.36621094 106.21289062 258.35351562 C106.20451172 257.32935547 106.19613281 256.30519531 106.1875 255.25 C106.18073242 253.69635742 106.18073242 253.69635742 106.17382812 252.11132812 C106.1620401 249.55332734 106.14558515 246.99544267 106.125 244.4375 C99.31657169 240.8504935 92.30084268 238.06060997 85.12109375 235.3046875 C83.8712431 234.82220891 82.62149416 234.33946679 81.37184143 233.85647583 C78.76651938 232.85052031 76.16015882 231.8473206 73.55297852 230.84619141 C70.22712336 229.56891305 66.90372631 228.28537674 63.58105373 226.9998455 C61.00559462 226.00408366 58.42898198 225.01133581 55.85200691 224.01950455 C54.03523081 223.31976139 52.21931896 222.61777567 50.40342712 221.91574097 C42.39197601 218.76872474 42.39197601 218.76872474 34.125 216.4375 C31.93586496 217.51243196 31.93586496 217.51243196 30.3125 219.5 C21.12110682 228.56646163 10.19532923 230.85395887 -2.26318359 230.80102539 C-14.63721105 230.54722811 -23.80154797 225.9456274 -32.87890625 217.59375 C-38.08570734 212.10580415 -41.21600601 205.5048837 -43.55880737 198.34881592 C-44.76460519 196.16107578 -44.76460519 196.16107578 -47.54519653 195.69073486 C-48.67770844 195.57526306 -49.81022034 195.45979126 -50.97705078 195.34082031 C-52.89881638 195.1310556 -52.89881638 195.1310556 -54.85940552 194.91705322 C-56.26300312 194.78284516 -57.66663981 194.64904539 -59.0703125 194.515625 C-60.50252095 194.3660293 -61.93455787 194.21478291 -63.36642456 194.06195068 C-67.1361611 193.66407539 -70.90781411 193.28869888 -74.68029785 192.91790771 C-78.52915447 192.53561456 -82.37578489 192.1321636 -86.22265625 191.73046875 C-93.77141451 190.94538062 -101.32232153 190.18403946 -108.875 189.4375 Z M144.58984375 229.15625 C136.83178811 239.21562489 135.24047208 251.09256679 136.125 263.4375 C138.27326785 275.41033038 144.53080628 285.25643867 153.9296875 292.94140625 C163.47100729 299.44376476 174.63138281 302.55589089 186.125 301.4375 C199.71725771 298.83674678 210.37478701 292.49114554 218.5 281.0625 C225.4508899 269.5500886 227.21530804 257.31361831 224.4296875 244.15234375 C220.44717604 232.2550091 212.54700094 222.27572536 201.39453125 216.5 C180.51265479 206.72397522 159.81958185 212.10514373 144.58984375 229.15625 Z M-141.25 230.125 C-148.7065908 234.69621436 -156.59977545 237.67909182 -164.875 240.4375 C-164.875 250.9975 -164.875 261.5575 -164.875 272.4375 C-161.2553125 273.736875 -161.2553125 273.736875 -157.5625 275.0625 C-136.58303925 282.84763904 -121.87955037 295.40621622 -111.875 315.4375 C-111.32126565 316.83770333 -110.78458171 318.24476604 -110.26489258 319.65795898 C-110.00235184 320.36863022 -109.7398111 321.07930145 -109.46931458 321.81150818 C-109.17512886 322.61637413 -109.17512886 322.61637413 -108.875 323.4375 C-101.04611646 322.60232301 -93.21735343 321.76602328 -85.38867188 320.92895508 C-82.72724922 320.64443864 -80.0657833 320.36033627 -77.40429688 320.07641602 C-73.57154228 319.66750292 -69.73888731 319.25766696 -65.90625 318.84765625 C-64.72260864 318.72157486 -63.53896729 318.59549347 -62.31945801 318.46559143 C-60.1318907 318.23123028 -57.9446447 317.99384012 -55.7578125 317.75271606 C-53.9542007 317.5555033 -52.14959511 317.36696578 -50.34375 317.19137573 C-46.33703051 316.96743224 -46.33703051 316.96743224 -43.3125 314.625 C-42.80604311 312.09271555 -43.0320654 310.86551815 -43.875 308.4375 C-45.21098597 306.70129214 -45.21098597 306.70129214 -46.9375 305.125 C-47.57171875 304.51785156 -48.2059375 303.91070312 -48.859375 303.28515625 C-51.43921802 300.92030014 -54.05713023 298.60630061 -56.70703125 296.3203125 C-59.12342951 294.2217468 -61.50029024 292.083103 -63.875 289.9375 C-66.85562721 287.24766569 -69.84745233 284.57439636 -72.875 281.9375 C-76.77012811 278.54496907 -80.60282763 275.08555799 -84.4375 271.625 C-86.56917481 269.71195851 -88.7151911 267.81862388 -90.875 265.9375 C-94.77012811 262.54496907 -98.60282763 259.08555799 -102.4375 255.625 C-104.56917481 253.71195851 -106.7151911 251.81862388 -108.875 249.9375 C-111.90254767 247.30060364 -114.89437279 244.62733431 -117.875 241.9375 C-128.42674429 230.09716259 -128.42674429 230.09716259 -141.25 230.125 Z M109.58203125 300.0546875 C108.68589111 300.40926025 107.78975098 300.76383301 106.86645508 301.12915039 C105.41662231 301.71490845 105.41662231 301.71490845 103.9375 302.3125 C102.41902466 302.9166272 102.41902466 302.9166272 100.86987305 303.53295898 C97.61898667 304.8280762 94.37198351 306.13263296 91.125 307.4375 C87.94558164 308.70684401 84.76542612 309.97432353 81.58505249 311.24127197 C79.48966745 312.07923095 77.396246 312.92211711 75.30484009 313.7699585 C70.2939799 315.79874459 65.27862506 317.76287249 60.18505859 319.57519531 C59.25951172 319.91462158 58.33396484 320.25404785 57.38037109 320.60375977 C55.65336212 321.23413226 53.91768675 321.84144823 52.17285156 322.4206543 C47.92331464 323.94099031 47.92331464 323.94099031 45.0806427 327.25556946 C44.0096041 330.54936929 43.49331153 333.92856112 43.46484375 337.38671875 C43.04586965 345.28763915 38.27697236 353.10580761 32.9609375 358.84375 C27.62626281 363.47470165 21.65373804 366.82600478 15.125 369.4375 C15.125 387.5875 15.125 405.7375 15.125 424.4375 C19.71406316 420.50401729 22.95360682 417.72579626 26.5 413.1875 C29.44222021 409.4972577 32.44079507 405.92126428 35.625 402.4375 C38.73958668 399.02010628 41.7168662 395.5322765 44.625 391.9375 C48.23532442 387.47473787 52.00927929 383.21030467 55.875 378.96875 C58.20362053 376.3490519 60.42062947 373.6623469 62.625 370.9375 C66.23532442 366.47473787 70.00927929 362.21030467 73.875 357.96875 C76.20362053 355.3490519 78.42062947 352.6623469 80.625 349.9375 C84.23532442 345.47473787 88.00927929 341.21030467 91.875 336.96875 C94.99312349 333.46086108 97.9203176 329.80885511 100.87109375 326.16015625 C103.07646704 323.49612647 105.3567631 320.92961558 107.6875 318.375 C112.06543926 313.57314057 116.12689996 308.55768261 120.125 303.4375 C119.135 300.9625 119.135 300.9625 118.125 298.4375 C114.44111349 298.4375 112.86943659 298.73972536 109.58203125 300.0546875 Z M-213.68359375 316.015625 C-217.13370686 319.82858423 -219.63425963 323.82290598 -221.875 328.4375 C-222.21402344 329.0975 -222.55304688 329.7575 -222.90234375 330.4375 C-227.17314309 340.5142247 -226.21006771 354.73300016 -222.25390625 364.69921875 C-216.08909375 376.94152346 -206.92330527 385.02271899 -194.06640625 389.74609375 C-183.06806895 393.21615739 -171.2831047 392.38537537 -160.875 387.4375 C-148.69105896 380.59179223 -141.1326378 370.74503657 -136.5625 357.6875 C-133.96831073 345.19509343 -135.93247213 333.17810124 -142.875 322.5 C-143.86336993 321.13732166 -144.8618575 319.78186217 -145.875 318.4375 C-146.74125 317.138125 -146.74125 317.138125 -147.625 315.8125 C-155.68893332 307.30057038 -166.76583679 302.23455752 -178.4765625 301.41015625 C-192.41239764 301.56903385 -203.63782882 306.4052303 -213.68359375 316.015625 Z M-10.875 316.4375 C-13.60958033 320.19443103 -15.24665145 323.7953519 -15 328.5 C-14.09054672 333.20502871 -11.39619605 336.32094017 -7.875 339.4375 C-4.10851799 341.88062347 -0.49046776 341.7166307 3.83984375 341.109375 C8.73716526 339.66947876 11.95527175 336.28956973 14.625 332.0625 C15.63720163 326.74844146 14.84585708 322.80197947 12.375 318.125 C9.43398807 314.61212464 7.43325773 312.7506807 2.79296875 312.12109375 C-2.89944338 311.85652887 -6.59389182 312.36025412 -10.875 316.4375 Z M-41.875 346.4375 C-44.63812913 346.41781738 -44.63812913 346.41781738 -47.88525391 346.85302734 C-49.77698837 347.06347183 -49.77698837 347.06347183 -51.7069397 347.27816772 C-53.08850847 347.44302452 -54.47004877 347.60812011 -55.8515625 347.7734375 C-57.26107095 347.93419326 -58.67069008 348.09398133 -60.08041382 348.25283813 C-63.79368498 348.67391577 -67.50530348 349.10815536 -71.21673584 349.54510498 C-75.00295916 349.98851283 -78.79059067 350.41952308 -82.578125 350.8515625 C-90.01185495 351.70137827 -97.44388337 352.56509639 -104.875 353.4375 C-105.74259552 356.70492273 -106.59173443 359.97686481 -107.4375 363.25 C-107.68435547 364.17876953 -107.93121094 365.10753906 -108.18554688 366.06445312 C-108.41435547 366.95712891 -108.64316406 367.84980469 -108.87890625 368.76953125 C-109.09361572 369.59171143 -109.3083252 370.4138916 -109.52954102 371.26098633 C-110.07376753 373.60958545 -110.07376753 373.60958545 -108.875 376.4375 C-107.30674702 377.8068769 -107.30674702 377.8068769 -105.30957031 379.04345703 C-104.54682297 379.54397079 -103.78407562 380.04448456 -102.99821472 380.56016541 C-102.15833511 381.09976395 -101.31845551 381.63936249 -100.453125 382.1953125 C-99.57767532 382.76798355 -98.70222565 383.3406546 -97.80024719 383.93067932 C-94.91402602 385.81660214 -92.02038759 387.69068429 -89.125 389.5625 C-85.09458487 392.17108054 -81.06686631 394.78371938 -77.04296875 397.40234375 C-76.02287216 398.06581314 -75.00277557 398.72928253 -73.95176697 399.41285706 C-67.22870193 403.81528711 -60.67119774 408.39852257 -54.17578125 413.12890625 C-51.71200612 414.89623195 -49.24611499 416.66057067 -46.77990723 418.42449951 C-45.22696052 419.55188104 -43.68665434 420.69689753 -42.16003418 421.85968018 C-40.03359053 423.47750418 -37.87087119 425.02895205 -35.69140625 426.57421875 C-35.08879471 427.05999893 -34.48618317 427.54577911 -33.86531067 428.04627991 C-31.8057036 429.59279693 -31.8057036 429.59279693 -27.875 430.4375 C-23.585 428.4575 -19.295 426.4775 -14.875 424.4375 C-14.875 406.2875 -14.875 388.1375 -14.875 369.4375 C-18.835 367.4575 -22.795 365.4775 -26.875 363.4375 C-31.96805403 359.97806707 -34.98981188 355.70646503 -38.359375 350.64453125 C-39.82633329 348.36442908 -39.82633329 348.36442908 -41.875 346.4375 Z M-11.6875 458.125 C-14.26185095 462.02330287 -15.31129502 464.7778692 -14.875 469.4375 C-13.57426626 473.85357135 -11.57367692 476.77209341 -8.25 479.9375 C-3.65681333 481.9789163 0.1770054 482.21112782 5.125 481.4375 C9.99361463 479.27367127 12.38986144 476.35438686 14.48828125 471.58203125 C15.5745488 467.92337551 15.47887185 465.0074463 14.125 461.4375 C11.85097036 457.79762237 9.34965557 455.14167695 5.625 453 C-1.67348047 451.35784189 -6.29745223 452.97450991 -11.6875 458.125 Z " fill="#FFDB6E" transform="translate(255.875,-0.4375)"/>
</svg>
