<?xml version="1.0" encoding="UTF-8"?>
<svg version="1.1" xmlns="http://www.w3.org/2000/svg" width="512" height="512">
<path d="M0 0 C1.09635521 -0.01029488 1.09635521 -0.01029488 2.21485901 -0.02079773 C4.61617804 -0.03900696 7.01684004 -0.03523682 9.41821289 -0.02954102 C11.09680899 -0.0341057 12.77540322 -0.03941213 14.45399475 -0.04542542 C17.96680305 -0.054345 21.47938386 -0.05194667 24.9921875 -0.04199219 C29.48235965 -0.03050473 33.97174509 -0.05071599 38.46181393 -0.07990932 C41.92693527 -0.0983011 45.39186912 -0.09797296 48.85702705 -0.0922718 C50.51194932 -0.09211895 52.16688458 -0.09813365 53.82176018 -0.11056328 C56.14078256 -0.12552834 58.45836483 -0.11475761 60.77734375 -0.09765625 C62.75207924 -0.097407 62.75207924 -0.097407 64.76670837 -0.09715271 C69.34568457 0.52536396 71.65246511 1.80674431 75.45336914 4.40405273 C78.36017758 8.66703124 78.74802953 11.6925158 78.33227539 16.76342773 C77.20166019 29.10304868 77.20166019 29.10304868 80.86743164 40.4597168 C84.89947183 43.84375053 89.78947759 45.48542458 94.68041992 47.27661133 C99.73804116 49.33296763 104.29380556 52.26968763 108.95336914 55.09155273 C110.98521993 56.28637238 113.01911804 57.47771651 115.05493164 58.66577148 C116.61195801 59.57721924 116.61195801 59.57721924 118.20043945 60.50708008 C124.96610309 64.45253238 131.75802595 68.35283752 138.54907227 72.25439453 C144.89177185 75.90425863 151.19351327 79.61377682 157.45336914 83.40405273 C157.48873779 82.69788818 157.52410645 81.99172363 157.56054688 81.26416016 C157.88564332 75.60748194 158.52523441 71.75685068 162.45336914 67.40405273 C167.08947213 64.56830409 170.60351 64.02216103 176 64 C177.09635521 63.98970512 177.09635521 63.98970512 178.21485901 63.97920227 C180.61617804 63.96099304 183.01684004 63.96476318 185.41821289 63.97045898 C187.09680899 63.9658943 188.77540322 63.96058787 190.45399475 63.95457458 C193.96680305 63.945655 197.47938386 63.94805333 200.9921875 63.95800781 C205.48235965 63.96949527 209.97174509 63.94928401 214.46181393 63.92009068 C217.92693527 63.9016989 221.39186912 63.90202704 224.85702705 63.9077282 C226.51194932 63.90788105 228.16688458 63.90186635 229.82176018 63.88943672 C232.14078256 63.87447166 234.45836483 63.88524239 236.77734375 63.90234375 C238.75207924 63.902593 238.75207924 63.902593 240.76670837 63.90284729 C245.34568457 64.52536396 247.65246511 65.80674431 251.45336914 68.40405273 C254.36017758 72.66703124 254.74802953 75.6925158 254.33227539 80.76342773 C253.20166019 93.10304868 253.20166019 93.10304868 256.86743164 104.4597168 C260.89947183 107.84375053 265.78947759 109.48542458 270.68041992 111.27661133 C275.73804116 113.33296763 280.29380556 116.26968763 284.95336914 119.09155273 C286.98521993 120.28637238 289.01911804 121.47771651 291.05493164 122.66577148 C292.61195801 123.57721924 292.61195801 123.57721924 294.20043945 124.50708008 C300.96610309 128.45253238 307.75802595 132.35283752 314.54907227 136.25439453 C320.89177185 139.90425863 327.19351327 143.61377682 333.45336914 147.40405273 C333.48873779 146.69788818 333.52410645 145.99172363 333.56054688 145.26416016 C333.88564332 139.60748194 334.52523441 135.75685068 338.45336914 131.40405273 C343.08947213 128.56830409 346.60351 128.02216103 352 128 C353.09635521 127.98970512 353.09635521 127.98970512 354.21485901 127.97920227 C356.61617804 127.96099304 359.01684004 127.96476318 361.41821289 127.97045898 C363.09680899 127.9658943 364.77540322 127.96058787 366.45399475 127.95457458 C369.96680305 127.945655 373.47938386 127.94805333 376.9921875 127.95800781 C381.48235965 127.96949527 385.97174509 127.94928401 390.46181393 127.92009068 C393.92693527 127.9016989 397.39186912 127.90202704 400.85702705 127.9077282 C402.51194932 127.90788105 404.16688458 127.90186635 405.82176018 127.88943672 C408.14078256 127.87447166 410.45836483 127.88524239 412.77734375 127.90234375 C414.75207924 127.902593 414.75207924 127.902593 416.76670837 127.90284729 C421.45370137 128.54004896 423.62797646 129.60914666 427.45336914 132.40405273 C430.530266 136.87452821 430.83544556 140.59917543 430.85742188 145.95068359 C430.86771675 147.0470388 430.86771675 147.0470388 430.8782196 148.1655426 C430.89642884 150.56686163 430.8926587 152.96752364 430.88696289 155.36889648 C430.89152758 157.04749258 430.89683401 158.72608681 430.90284729 160.40467834 C430.91176687 163.91748664 430.90936854 167.43006745 430.89941406 170.94287109 C430.88792661 175.43304324 430.90813787 179.92242869 430.9373312 184.41249752 C430.95572297 187.87761886 430.95539483 191.34255272 430.94969368 194.80771065 C430.94954082 196.46263291 430.95555553 198.11756818 430.96798515 199.77244377 C430.98295022 202.09146616 430.97217948 204.40904842 430.95507812 206.72802734 C430.95482887 208.70276283 430.95482887 208.70276283 430.95457458 210.71739197 C430.31737291 215.40438497 429.24827521 217.57866005 426.45336914 221.40405273 C421.98289366 224.4809496 418.25824645 224.78612916 412.90673828 224.80810547 C412.17583481 224.81496872 411.44493134 224.82183197 410.69187927 224.8289032 C408.29056024 224.84711243 405.88989824 224.84334229 403.48852539 224.83764648 C401.80992929 224.84221117 400.13133506 224.8475176 398.45274353 224.85353088 C394.93993523 224.86245047 391.42735442 224.86005213 387.91455078 224.85009766 C383.42437863 224.8386102 378.93499319 224.85882146 374.44492435 224.88801479 C370.97980301 224.90640657 367.51486916 224.90607843 364.04971123 224.90037727 C362.39478896 224.90022442 360.7398537 224.90623912 359.0849781 224.91866875 C356.76595572 224.93363381 354.44837345 224.92286307 352.12939453 224.90576172 C350.81290421 224.90559555 349.49641388 224.90542938 348.14002991 224.90525818 C343.56606378 224.28342263 341.25326838 222.99180601 337.45336914 220.40405273 C334.99700614 216.88326576 334.30188474 213.88149493 333.88305664 209.69702148 C333.80039551 208.89159912 333.71773438 208.08617676 333.63256836 207.25634766 C333.54386475 206.33946167 333.54386475 206.33946167 333.45336914 205.40405273 C320.76870572 212.70668881 308.09007955 220.01864477 295.45336914 227.40405273 C286.6758981 232.53296807 277.88318827 237.6347816 269.07836914 242.71655273 C267.94786133 243.36946289 266.81735352 244.02237305 265.65258789 244.69506836 C264.08831055 245.59708984 264.08831055 245.59708984 262.49243164 246.51733398 C261.56640137 247.05140869 260.64037109 247.5854834 259.6862793 248.13574219 C258.29435785 248.92636453 256.88515935 249.68815763 255.45336914 250.40405273 C255.44402344 251.21559814 255.43467773 252.02714355 255.42504883 252.86328125 C255.37113684 256.56497321 255.28752715 260.26542993 255.20336914 263.96655273 C255.18918945 265.24336914 255.17500977 266.52018555 255.16040039 267.83569336 C254.84039729 280.15581268 254.84039729 280.15581268 250.45336914 285.40405273 C245.82900952 288.25565276 242.29811263 288.78596544 236.90673828 288.80810547 C235.81038307 288.81840034 235.81038307 288.81840034 234.69187927 288.8289032 C232.29056024 288.84711243 229.88989824 288.84334229 227.48852539 288.83764648 C225.80992929 288.84221117 224.13133506 288.8475176 222.45274353 288.85353088 C218.93993523 288.86245047 215.42735442 288.86005213 211.91455078 288.85009766 C207.42437863 288.8386102 202.93499319 288.85882146 198.44492435 288.88801479 C194.97980301 288.90640657 191.51486916 288.90607843 188.04971123 288.90037727 C186.39478896 288.90022442 184.7398537 288.90623912 183.0849781 288.91866875 C180.76595572 288.93363381 178.44837345 288.92286307 176.12939453 288.90576172 C174.81290421 288.90559555 173.49641388 288.90542938 172.14002991 288.90525818 C167.56606378 288.28342263 165.25326838 286.99180601 161.45336914 284.40405273 C158.99700614 280.88326576 158.30188474 277.88149493 157.88305664 273.69702148 C157.80039551 272.89159912 157.71773437 272.08617676 157.63256836 271.25634766 C157.54386475 270.33946167 157.54386475 270.33946167 157.45336914 269.40405273 C144.76870572 276.70668881 132.09007955 284.01864477 119.45336914 291.40405273 C110.6758981 296.53296807 101.88318827 301.6347816 93.07836914 306.71655273 C91.94786133 307.36946289 90.81735352 308.02237305 89.65258789 308.69506836 C88.60973633 309.29641602 87.56688477 309.89776367 86.49243164 310.51733398 C85.56640137 311.05140869 84.64037109 311.5854834 83.6862793 312.13574219 C82.29435785 312.92636453 80.88515935 313.68815763 79.45336914 314.40405273 C79.44402344 315.21559814 79.43467773 316.02714355 79.42504883 316.86328125 C79.37113684 320.56497321 79.28752715 324.26542993 79.20336914 327.96655273 C79.18918945 329.24336914 79.17500977 330.52018555 79.16040039 331.83569336 C78.84039729 344.15581268 78.84039729 344.15581268 74.45336914 349.40405273 C69.82900952 352.25565276 66.29811263 352.78596544 60.90673828 352.80810547 C59.81038307 352.81840034 59.81038307 352.81840034 58.69187927 352.8289032 C56.29056024 352.84711243 53.88989824 352.84334229 51.48852539 352.83764648 C49.80992929 352.84221117 48.13133506 352.8475176 46.45274353 352.85353088 C42.93993523 352.86245047 39.42735442 352.86005213 35.91455078 352.85009766 C31.42437863 352.8386102 26.93499319 352.85882146 22.44492435 352.88801479 C18.97980301 352.90640657 15.51486916 352.90607843 12.04971123 352.90037727 C10.39478896 352.90022442 8.7398537 352.90623912 7.0849781 352.91866875 C4.76595572 352.93363381 2.44837345 352.92286307 0.12939453 352.90576172 C-1.18709579 352.90559555 -2.50358612 352.90542938 -3.85997009 352.90525818 C-8.54696309 352.26805651 -10.72123817 351.1989588 -14.54663086 348.40405273 C-17.58671074 343.9977672 -17.98477111 339.96709094 -17.95068359 334.74975586 C-17.95754684 334.00749252 -17.9644101 333.26522919 -17.97148132 332.50047302 C-17.98969114 330.06188498 -17.98592083 327.62394377 -17.98022461 325.18530273 C-17.98478878 323.48189079 -17.99009505 321.77848069 -17.99610901 320.07507324 C-18.00502832 316.51099144 -18.00262997 312.94713386 -17.99267578 309.38305664 C-17.98117946 304.82328867 -18.00141335 300.26429436 -18.03059292 295.70462799 C-18.04896617 292.18893548 -18.04866038 288.67342807 -18.0429554 285.15769958 C-18.04280236 283.47683119 -18.04883193 281.79595011 -18.06124687 280.11512756 C-18.07617939 277.76237848 -18.06546534 275.41105506 -18.04833984 273.05834961 C-18.05800781 272.36934067 -18.06767578 271.68033173 -18.07763672 270.97044373 C-18.00222042 266.00513217 -16.78196264 263.143896 -13.54663086 259.40405273 C-9.02583641 256.39422026 -5.36651926 256.02203795 0 256 C0.73090347 255.99313675 1.46180695 255.9862735 2.21485901 255.97920227 C4.61617804 255.96099304 7.01684004 255.96476318 9.41821289 255.97045898 C11.09680899 255.9658943 12.77540322 255.96058787 14.45399475 255.95457458 C17.96680305 255.945655 21.47938386 255.94805333 24.9921875 255.95800781 C29.48235965 255.96949527 33.97174509 255.94928401 38.46181393 255.92009068 C41.92693527 255.9016989 45.39186912 255.90202704 48.85702705 255.9077282 C50.51194932 255.90788105 52.16688458 255.90186635 53.82176018 255.88943672 C56.14078256 255.87447166 58.45836483 255.88524239 60.77734375 255.90234375 C62.75207924 255.902593 62.75207924 255.902593 64.76670837 255.90284729 C69.3406745 256.52468284 71.6534699 257.81629945 75.45336914 260.40405273 C77.90973214 263.9248397 78.60485354 266.92661054 79.02368164 271.11108398 C79.10634277 271.91650635 79.18900391 272.72192871 79.27416992 273.55175781 C79.33330566 274.16301514 79.39244141 274.77427246 79.45336914 275.40405273 C93.61469325 267.32674623 107.76880515 259.23734347 121.89086914 251.09155273 C122.97867676 250.46434326 124.06648437 249.83713379 125.18725586 249.19091797 C130.70853054 246.0176903 130.70853054 246.0176903 136.15283203 242.71582031 C138.45336914 241.40405273 138.45336914 241.40405273 140.45336914 241.40405273 C140.45336914 240.74405273 140.45336914 240.08405273 140.45336914 239.40405273 C139.78950195 239.16170898 139.12563477 238.91936523 138.44165039 238.66967773 C134.68642695 237.07923016 131.19478556 235.14788691 127.64086914 233.15405273 C126.8696875 232.72366699 126.09850586 232.29328125 125.30395508 231.84985352 C116.50267947 226.91191846 107.80153211 221.80163064 99.09399414 216.70092773 C92.57580453 212.88444247 86.0242113 209.12907241 79.45336914 205.40405273 C79.32381836 206.61641602 79.32381836 206.61641602 79.19165039 207.85327148 C78.03681763 216.63635736 78.03681763 216.63635736 75.07836914 220.52905273 C70.32450597 223.92466929 66.95873743 224.70228436 61.13378906 224.69458008 C60.40317764 224.7012973 59.67256622 224.70801453 58.91981506 224.7149353 C56.5077532 224.73391123 54.09596973 224.73783947 51.68383789 224.73999023 C50.0023843 224.74641923 48.32093184 224.75314767 46.63948059 224.76016235 C43.11477059 224.77213465 39.59015859 224.77584331 36.06542969 224.7746582 C31.55954215 224.77445519 27.05428661 224.80173849 22.5485487 224.83620262 C19.07486616 224.85849585 15.60133501 224.86249498 12.12758827 224.86143875 C10.46707294 224.86379179 8.80655324 224.87259855 7.14610863 224.88810349 C4.81734023 224.90781027 2.48992534 224.90190792 0.16113281 224.88989258 C-0.5180722 224.90113159 -1.19727722 224.91237061 -1.89706421 224.9239502 C-7.27821371 224.85377905 -10.28872314 223.51820497 -14.54663086 220.40405273 C-17.58671074 215.9977672 -17.98477111 211.96709094 -17.95068359 206.74975586 C-17.95754684 206.00749252 -17.9644101 205.26522919 -17.97148132 204.50047302 C-17.98969114 202.06188498 -17.98592083 199.62394377 -17.98022461 197.18530273 C-17.98478878 195.48189079 -17.99009505 193.77848069 -17.99610901 192.07507324 C-18.00502832 188.51099144 -18.00262997 184.94713386 -17.99267578 181.38305664 C-17.98117946 176.82328867 -18.00141335 172.26429436 -18.03059292 167.70462799 C-18.04896617 164.18893548 -18.04866038 160.67342807 -18.0429554 157.15769958 C-18.04280236 155.47683119 -18.04883193 153.79595011 -18.06124687 152.11512756 C-18.07617939 149.76237848 -18.06546534 147.41105506 -18.04833984 145.05834961 C-18.05800781 144.36934067 -18.06767578 143.68033173 -18.07763672 142.97044373 C-18.00222042 138.00513217 -16.78196264 135.143896 -13.54663086 131.40405273 C-9.02583641 128.39422026 -5.36651926 128.02203795 0 128 C1.09635521 127.98970512 1.09635521 127.98970512 2.21485901 127.97920227 C4.61617804 127.96099304 7.01684004 127.96476318 9.41821289 127.97045898 C11.09680899 127.9658943 12.77540322 127.96058787 14.45399475 127.95457458 C17.96680305 127.945655 21.47938386 127.94805333 24.9921875 127.95800781 C29.48235965 127.96949527 33.97174509 127.94928401 38.46181393 127.92009068 C41.92693527 127.9016989 45.39186912 127.90202704 48.85702705 127.9077282 C50.51194932 127.90788105 52.16688458 127.90186635 53.82176018 127.88943672 C56.14078256 127.87447166 58.45836483 127.88524239 60.77734375 127.90234375 C62.75207924 127.902593 62.75207924 127.902593 64.76670837 127.90284729 C69.3406745 128.52468284 71.6534699 129.81629945 75.45336914 132.40405273 C77.90973214 135.9248397 78.60485354 138.92661054 79.02368164 143.11108398 C79.10634277 143.91650635 79.18900391 144.72192871 79.27416992 145.55175781 C79.33330566 146.16301514 79.39244141 146.77427246 79.45336914 147.40405273 C93.61469325 139.32674623 107.76880515 131.23734347 121.89086914 123.09155273 C122.97867676 122.46434326 124.06648437 121.83713379 125.18725586 121.19091797 C130.70853054 118.0176903 130.70853054 118.0176903 136.15283203 114.71582031 C138.45336914 113.40405273 138.45336914 113.40405273 140.45336914 113.40405273 C140.45336914 112.74405273 140.45336914 112.08405273 140.45336914 111.40405273 C139.78950195 111.16170898 139.12563477 110.91936523 138.44165039 110.66967773 C134.68642695 109.07923016 131.19478556 107.14788691 127.64086914 105.15405273 C126.8696875 104.72366699 126.09850586 104.29328125 125.30395508 103.84985352 C116.50267947 98.91191846 107.80153211 93.80163064 99.09399414 88.70092773 C92.57580453 84.88444247 86.0242113 81.12907241 79.45336914 77.40405273 C79.32381836 78.61641602 79.32381836 78.61641602 79.19165039 79.85327148 C78.03681763 88.63635736 78.03681763 88.63635736 75.07836914 92.52905273 C70.32450597 95.92466929 66.95873743 96.70228436 61.13378906 96.69458008 C60.40317764 96.7012973 59.67256622 96.70801453 58.91981506 96.7149353 C56.5077532 96.73391123 54.09596973 96.73783947 51.68383789 96.73999023 C50.0023843 96.74641923 48.32093184 96.75314767 46.63948059 96.76016235 C43.11477059 96.77213465 39.59015859 96.77584331 36.06542969 96.7746582 C31.55954215 96.77445519 27.05428661 96.80173849 22.5485487 96.83620262 C19.07486616 96.85849585 15.60133501 96.86249498 12.12758827 96.86143875 C10.46707294 96.86379179 8.80655324 96.87259855 7.14610863 96.88810349 C4.81734023 96.90781027 2.48992534 96.90190792 0.16113281 96.88989258 C-0.5180722 96.90113159 -1.19727722 96.91237061 -1.89706421 96.9239502 C-7.27821371 96.85377905 -10.28872314 95.51820497 -14.54663086 92.40405273 C-17.58671074 87.9977672 -17.98477111 83.96709094 -17.95068359 78.74975586 C-17.95754684 78.00749252 -17.9644101 77.26522919 -17.97148132 76.50047302 C-17.98969114 74.06188498 -17.98592083 71.62394377 -17.98022461 69.18530273 C-17.98478878 67.48189079 -17.99009505 65.77848069 -17.99610901 64.07507324 C-18.00502832 60.51099144 -18.00262997 56.94713386 -17.99267578 53.38305664 C-17.98117946 48.82328867 -18.00141335 44.26429436 -18.03059292 39.70462799 C-18.04896617 36.18893548 -18.04866038 32.67342807 -18.0429554 29.15769958 C-18.04280236 27.47683119 -18.04883193 25.79595011 -18.06124687 24.11512756 C-18.07617939 21.76237848 -18.06546534 19.41105506 -18.04833984 17.05834961 C-18.05800781 16.36934067 -18.06767578 15.68033173 -18.07763672 14.97044373 C-18.00222042 10.00513217 -16.78196264 7.143896 -13.54663086 3.40405273 C-9.02583641 0.39422026 -5.36651926 0.02203795 0 0 Z M14.45336914 32.40405273 C14.45336914 42.96405273 14.45336914 53.52405273 14.45336914 64.40405273 C25.01336914 64.40405273 35.57336914 64.40405273 46.45336914 64.40405273 C46.45336914 53.84405273 46.45336914 43.28405273 46.45336914 32.40405273 C35.89336914 32.40405273 25.33336914 32.40405273 14.45336914 32.40405273 Z M190.45336914 96.40405273 C190.45336914 106.96405273 190.45336914 117.52405273 190.45336914 128.40405273 C201.01336914 128.40405273 211.57336914 128.40405273 222.45336914 128.40405273 C222.45336914 117.84405273 222.45336914 107.28405273 222.45336914 96.40405273 C211.89336914 96.40405273 201.33336914 96.40405273 190.45336914 96.40405273 Z M152.14477539 143.37670898 C151.0170874 144.02220703 149.88939941 144.66770508 148.72753906 145.33276367 C147.49027784 146.04396073 146.25305545 146.75522537 145.01586914 147.46655273 C143.75464339 148.18968469 142.49333058 148.91266482 141.23193359 149.63549805 C130.42218613 155.83353472 119.62879642 162.06010957 108.84008789 168.29467773 C104.71785269 170.67631855 100.58975065 173.04707371 96.45336914 175.40405273 C96.45336914 176.06405273 96.45336914 176.72405273 96.45336914 177.40405273 C97.12166748 177.77578613 97.78996582 178.14751953 98.47851562 178.53051758 C111.16607118 185.59427631 123.80261312 192.71928569 136.29223633 200.12719727 C140.50124968 202.61399571 144.72648849 205.07278561 148.95336914 207.52905273 C149.78594238 208.015271 150.61851562 208.50148926 151.47631836 209.00244141 C152.24218262 209.44692627 153.00804687 209.89141113 153.79711914 210.34936523 C154.47967773 210.74655762 155.16223633 211.14375 155.86547852 211.55297852 C157.30000147 212.48278639 157.30000147 212.48278639 158.45336914 212.40405273 C158.49075195 211.66799805 158.52813477 210.93194336 158.56665039 210.17358398 C159.25667606 199.9314382 159.25667606 199.9314382 162.45336914 196.40405273 C167.10981468 193.58133017 170.60676734 193.02565926 176.01586914 193.01586914 C176.74837891 193.01061218 177.48088867 193.00535522 178.2355957 192.99993896 C180.64174116 192.98680319 183.04721769 192.99545382 185.45336914 193.00561523 C187.13436001 193.00359264 188.81535002 193.00067966 190.49633789 192.99691772 C194.01335025 192.99250308 197.53013349 192.9988976 201.04711914 193.01293945 C205.54624674 193.03003093 210.04483739 193.02018512 214.54394531 193.00222206 C218.01330583 192.9913609 221.48253989 192.99484124 224.9519043 193.00260544 C226.6104336 193.004601 228.26897452 193.00217085 229.92749023 192.99516678 C232.24892417 192.98751368 234.56949889 192.9992095 236.89086914 193.01586914 C238.20958008 193.01825592 239.52829102 193.0206427 240.88696289 193.02310181 C244.75181718 193.4359319 247.16330052 194.36582085 250.45336914 196.40405273 C253.93924855 201.332365 254.07639134 206.56622506 254.45336914 212.40405273 C272.35361851 202.66969669 290.21999457 192.87540959 307.71704102 182.42993164 C310.60993222 180.7207178 313.53166101 179.06343312 316.45336914 177.40405273 C316.45336914 176.74405273 316.45336914 176.08405273 316.45336914 175.40405273 C315.88231445 175.08355957 315.31125977 174.76306641 314.72290039 174.43286133 C303.3961489 168.06944192 292.10503472 161.65167443 280.89086914 155.09155273 C279.38931274 154.21321777 279.38931274 154.21321777 277.85742188 153.31713867 C276.40057983 152.46490723 276.40057983 152.46490723 274.91430664 151.59545898 C270.29049193 148.89088799 265.66107182 146.19673507 261.01586914 143.52905273 C259.9446582 142.91288086 258.87344727 142.29670898 257.76977539 141.66186523 C255.74621473 140.32452107 255.74621473 140.32452107 254.45336914 140.40405273 C254.32381836 141.72469727 254.32381836 141.72469727 254.19165039 143.07202148 C252.90069095 153.74316325 252.90069095 153.74316325 250.01586914 156.65405273 C245.79619472 159.5357816 242.15894606 159.55720771 237.23144531 159.56518555 C236.49937363 159.57015045 235.76730194 159.57511536 235.01304626 159.58023071 C232.59080057 159.59483706 230.16862039 159.60165208 227.74633789 159.60717773 C226.06106057 159.61293083 224.37578327 159.61868855 222.69050598 159.62445068 C219.15564672 159.63495659 215.62081018 159.64080181 212.0859375 159.64428711 C207.56323613 159.64976831 203.04083635 159.67378995 198.51822948 159.70225906 C195.03602734 159.72091215 191.55389743 159.72609248 188.07164955 159.72762299 C186.40473089 159.73064446 184.73781335 159.73865593 183.07094383 159.75180817 C180.73489025 159.76892344 178.39956795 159.76697527 176.06347656 159.76049805 C175.37910522 159.76971283 174.69473389 159.77892761 173.98962402 159.78842163 C169.42995142 159.74895322 166.32134317 158.80591511 162.45336914 156.40405273 C158.98244323 151.49688162 158.78746432 146.23343751 158.45336914 140.40405273 C156.29078724 140.40405273 153.92821071 142.35389643 152.14477539 143.37670898 Z M14.45336914 160.40405273 C14.45336914 170.96405273 14.45336914 181.52405273 14.45336914 192.40405273 C25.01336914 192.40405273 35.57336914 192.40405273 46.45336914 192.40405273 C46.45336914 181.84405273 46.45336914 171.28405273 46.45336914 160.40405273 C35.89336914 160.40405273 25.33336914 160.40405273 14.45336914 160.40405273 Z M366.45336914 160.40405273 C366.45336914 170.96405273 366.45336914 181.52405273 366.45336914 192.40405273 C377.01336914 192.40405273 387.57336914 192.40405273 398.45336914 192.40405273 C398.45336914 181.84405273 398.45336914 171.28405273 398.45336914 160.40405273 C387.89336914 160.40405273 377.33336914 160.40405273 366.45336914 160.40405273 Z M190.45336914 224.40405273 C190.45336914 234.96405273 190.45336914 245.52405273 190.45336914 256.40405273 C201.01336914 256.40405273 211.57336914 256.40405273 222.45336914 256.40405273 C222.45336914 245.84405273 222.45336914 235.28405273 222.45336914 224.40405273 C211.89336914 224.40405273 201.33336914 224.40405273 190.45336914 224.40405273 Z M14.45336914 288.40405273 C14.45336914 298.96405273 14.45336914 309.52405273 14.45336914 320.40405273 C25.01336914 320.40405273 35.57336914 320.40405273 46.45336914 320.40405273 C46.45336914 309.84405273 46.45336914 299.28405273 46.45336914 288.40405273 C35.89336914 288.40405273 25.33336914 288.40405273 14.45336914 288.40405273 Z " fill="#FFDB6E" transform="translate(49.546630859375,79.595947265625)"/>
<path d="M0 0 C4.90500425 2.07519411 7.62550017 5.27845121 10 10 C10.89129744 15.00922979 11.07287212 19.93727562 8.6875 24.5234375 C6.93365256 26.8590901 5.0611878 28.9388122 3 31 C3.80268342 31.00146656 4.60536684 31.00293312 5.432374 31.00444412 C24.97105237 31.04150939 44.5095519 31.10052041 64.04808903 31.18390274 C73.49682459 31.22369779 82.9454768 31.25608792 92.39428711 31.27099609 C100.63068913 31.28401019 108.86690781 31.31096866 117.10320657 31.35461307 C121.46356839 31.37723336 125.82370402 31.39291034 130.18412971 31.39188385 C134.29070285 31.39113757 138.39677588 31.40907522 142.5032196 31.44116783 C144.00799719 31.44966672 145.51283088 31.4514168 147.01762199 31.44580269 C161.61980421 31.39859293 161.61980421 31.39859293 167 36 C170.75777017 41.09894638 170.43207198 46.40113428 170.40405273 52.48413086 C170.41091599 53.52714859 170.41777924 54.57016632 170.42485046 55.64479065 C170.44311841 59.0849477 170.43928084 62.52464871 170.43359375 65.96484375 C170.4381555 68.36088713 170.44346106 70.7569292 170.44947815 73.15296936 C170.45840925 78.1722648 170.45598597 83.19140113 170.44604492 88.21069336 C170.43455493 94.63786912 170.45476786 101.06449549 170.48396206 107.49159908 C170.50232161 112.43904602 170.50203204 117.38636124 170.49632454 122.33383369 C170.4961713 124.7032708 170.50221785 127.07271683 170.51461601 129.44212151 C170.52951906 132.75725495 170.5188529 136.07137261 170.50170898 139.38647461 C170.51621094 140.84940445 170.51621094 140.84940445 170.53100586 142.34188843 C170.46528969 148.42078589 169.56968456 152.03117197 166 157 C160.7580672 161.06249792 154.33935669 160.75630395 148 160 C144.02976588 158.76713782 141.60377172 156.94887834 139.33769226 153.38754272 C137.68977591 149.21439528 137.5983424 145.8612192 137.65942383 141.42431641 C137.65906222 140.57114523 137.65870062 139.71797405 137.65832806 138.8389492 C137.66055703 136.09291016 137.68335552 133.34749144 137.70703125 130.6015625 C137.71144526 128.89998671 137.71450385 127.19840685 137.71618652 125.49682617 C137.73187857 119.2061551 137.77376242 112.91557137 137.8125 106.625 C137.874375 92.55875 137.93625 78.4925 138 64 C93.45 64.33 48.9 64.66 3 65 C4.98 67.31 6.96 69.62 9 72 C11.12210559 76.24421119 10.614732 81.40387287 10 86 C7.78380148 90.62008811 4.86888233 94.17197198 0 96 C-2.8046875 96.3359375 -2.8046875 96.3359375 -5.875 96.375 C-6.88304687 96.40335937 -7.89109375 96.43171875 -8.9296875 96.4609375 C-15.98914479 95.40112076 -20.87727198 89.41699973 -25.69921875 84.56640625 C-26.41608353 83.85145493 -27.1329483 83.1365036 -27.87153625 82.39988708 C-29.37913742 80.89364165 -30.88423697 79.38488863 -32.38696289 77.8737793 C-34.6835071 75.56651155 -36.99054281 73.2701241 -39.29882812 70.97460938 C-40.76626681 69.50584929 -42.23308509 68.03646904 -43.69921875 66.56640625 C-44.38674728 65.88292618 -45.07427582 65.19944611 -45.78263855 64.49525452 C-50.83011606 59.39814152 -54.42785808 55.55427319 -54.4375 48.0625 C-54.45683594 47.06347656 -54.47617188 46.06445312 -54.49609375 45.03515625 C-53.32836765 37.89087923 -47.23392702 32.9402601 -42.3125 28.046875 C-41.57298096 27.3054425 -40.83346191 26.56401001 -40.0715332 25.80010986 C-38.51401325 24.24123404 -36.95398525 22.68486049 -35.39160156 21.13085938 C-33.00091439 18.75091028 -30.62111816 16.36044421 -28.2421875 13.96875 C-26.72459945 12.45248305 -25.20639138 10.93683636 -23.6875 9.421875 C-22.97698486 8.7073114 -22.26646973 7.9927478 -21.53442383 7.25653076 C-20.86693115 6.59534241 -20.19943848 5.93415405 -19.51171875 5.25292969 C-18.92865967 4.67146179 -18.34560059 4.0899939 -17.74487305 3.49090576 C-12.50272392 -0.98824552 -6.60150938 -0.84679047 0 0 Z " fill="#FFDB6E" transform="translate(278,32)"/>
<path d="M0 0 C3.73412252 3.01907778 5.61501184 5.7528737 6.21417046 10.62458611 C6.33503444 13.37366079 6.35422763 16.1074028 6.34155273 18.85913086 C6.34841599 19.90214859 6.35527924 20.94516632 6.36235046 22.01979065 C6.38061841 25.4599477 6.37678084 28.89964871 6.37109375 32.33984375 C6.3756555 34.73588713 6.38096106 37.1319292 6.38697815 39.52796936 C6.39590925 44.5472648 6.39348597 49.56640113 6.38354492 54.58569336 C6.37205493 61.01286912 6.39226786 67.43949549 6.42146206 73.86659908 C6.43982161 78.81404602 6.43953204 83.76136124 6.43382454 88.70883369 C6.4336713 91.0782708 6.43971785 93.44771683 6.45211601 95.81712151 C6.46701906 99.13225495 6.4563529 102.44637261 6.43920898 105.76147461 C6.45371094 107.22440445 6.45371094 107.22440445 6.46850586 108.71688843 C6.40299665 114.77664145 5.69389174 118.52788434 1.9375 123.375 C-2.41491565 126.02914975 -5.6800223 126.75347009 -10.74435425 126.77372742 C-11.39059852 126.78037424 -12.03684279 126.78702107 -12.70267022 126.79386932 C-14.85386383 126.81242406 -17.00449756 126.80989927 -19.15576172 126.80737305 C-20.70343303 126.81639485 -22.2510972 126.8267231 -23.79875183 126.83825684 C-27.99043056 126.86580395 -32.18197362 126.87510823 -36.37373114 126.88111091 C-40.75800787 126.89050054 -45.14218351 126.91670442 -49.52639771 126.94111633 C-57.82413895 126.98476881 -66.12186057 127.01332346 -74.41968167 127.03643972 C-83.86830868 127.06349809 -93.31683393 127.10740922 -102.76538825 127.15272844 C-122.19770509 127.24555679 -141.63004885 127.31724582 -161.0625 127.375 C-160.64097656 127.85710937 -160.21945312 128.33921875 -159.78515625 128.8359375 C-159.23730469 129.46757812 -158.68945312 130.09921875 -158.125 130.75 C-157.57972656 131.37648438 -157.03445313 132.00296875 -156.47265625 132.6484375 C-153.28818678 136.54742782 -153.67201058 140.44772754 -153.71875 145.3203125 C-154.22168197 149.78954891 -155.76409451 152.38281253 -159.0625 155.375 C-163.36615157 158.47763253 -167.26181564 158.74571502 -172.40234375 158.87109375 C-179.77495937 157.49617131 -184.80068893 152.06898127 -189.859375 146.94140625 C-190.57482483 146.22645493 -191.29027466 145.5115036 -192.02740479 144.77488708 C-193.53018128 143.26978091 -195.02929246 141.76100707 -196.52490234 140.2487793 C-198.81056432 137.93945572 -201.10932703 135.6438115 -203.41015625 133.34960938 C-204.87319063 131.88099968 -206.33545697 130.41162439 -207.796875 128.94140625 C-208.48126648 128.25792618 -209.16565796 127.57444611 -209.87078857 126.87025452 C-214.82152197 121.84553916 -218.48032333 117.92171994 -218.625 110.5625 C-218.66753906 109.58667969 -218.71007812 108.61085938 -218.75390625 107.60546875 C-217.11646405 99.95482071 -210.00209313 94.01575806 -204.6171875 88.6640625 C-203.92489044 87.96985199 -203.23259338 87.27564148 -202.51931763 86.56039429 C-201.06790479 85.10763045 -199.61400337 83.65734894 -198.15771484 82.20947266 C-195.92960007 79.99213829 -193.71244779 77.76423952 -191.49609375 75.53515625 C-190.07876638 74.11914939 -188.66081933 72.70376248 -187.2421875 71.2890625 C-186.2514473 70.2922496 -186.2514473 70.2922496 -185.24069214 69.27529907 C-184.30919846 68.35326187 -184.30919846 68.35326187 -183.35888672 67.41259766 C-182.54664139 66.60273911 -182.54664139 66.60273911 -181.71798706 65.77651978 C-177.17238355 61.92825459 -172.81945806 61.8936312 -167.046875 61.9921875 C-162.7247299 62.54659878 -159.93802039 64.13102853 -157.0625 67.375 C-153.20445381 72.78723541 -152.99492046 77.91947996 -154.0625 84.375 C-155.89571953 87.89958279 -158.27315313 90.58565313 -161.0625 93.375 C-116.5125 93.705 -71.9625 94.035 -26.0625 94.375 C-26.22076204 66.0132753 -26.22076204 66.0132753 -26.42285156 37.65185547 C-26.44091797 32.15649414 -26.44091797 32.15649414 -26.4442749 29.58084106 C-26.45040234 27.7885643 -26.46444 25.99630365 -26.48480225 24.20413208 C-26.51416054 21.48329183 -26.51812157 18.76345582 -26.51660156 16.04248047 C-26.530994 15.24902159 -26.54538643 14.45556271 -26.560215 13.63805962 C-26.52140012 8.43387262 -25.48277325 5.5147344 -22.0625 1.375 C-16.10664638 -3.09189022 -6.62511738 -3.36894267 0 0 Z " fill="#FFDB6E" transform="translate(442.0625,321.625)"/>
</svg>
