<?xml version="1.0" encoding="UTF-8"?>
<svg version="1.1" xmlns="http://www.w3.org/2000/svg" width="512" height="512">
<path d="M0 0 C2.34657288 1.74310303 2.34657288 1.74310303 4.69946289 3.95996094 C5.56902618 4.77428589 6.43858948 5.58861084 7.33450317 6.4276123 C8.6539241 7.70094421 8.6539241 7.70094421 10 9 C10.81943085 9.79055786 11.63886169 10.58111572 12.48312378 11.39562988 C15.02491321 13.87772861 17.54484676 16.38013957 20.05859375 18.890625 C20.96956314 19.79826599 21.88053253 20.70590698 22.81910706 21.64105225 C24.72580475 23.54183031 26.63049499 25.44459335 28.53393555 27.34863281 C30.96526246 29.78006224 33.40345723 32.20448075 35.84336758 34.62729263 C38.19044494 36.96057033 40.53031311 39.30103051 42.87109375 41.640625 C43.74293808 42.50528381 44.61478241 43.36994263 45.51304626 44.26080322 C46.32141434 45.07224792 47.12978241 45.88369263 47.96264648 46.71972656 C48.67194809 47.42760315 49.38124969 48.13547974 50.11204529 48.86480713 C54.34127311 53.64787583 55.61466739 57.27360394 55.41796875 63.55859375 C54.71636065 67.65677189 53.09624514 69.2477821 50 72 C46.29244208 74.36871756 42.67920117 74.37421458 38.42871094 73.70898438 C35.714855 72.91676105 34.43687496 71.98412742 32.36328125 70.0859375 C31.67468018 69.45598877 30.9860791 68.82604004 30.27661133 68.17700195 C25.94953662 64.03925126 21.71336373 59.81567022 17.5 55.5625 C16.12328125 54.17901367 16.12328125 54.17901367 14.71875 52.76757812 C12.47684945 50.51400101 10.237334 48.25810925 8 46 C7.98018066 46.83958252 7.96036133 47.67916504 7.93994141 48.54418945 C7.09014646 82.86228997 5.51657865 112.32428295 -17 140 C-18.175625 141.5778125 -18.175625 141.5778125 -19.375 143.1875 C-37.50041742 162.6075901 -62.74252172 173.43140224 -89.01171875 175.203125 C-98.03851655 175.36125868 -98.03851655 175.36125868 -102 172 C-103.11375 171.195625 -103.11375 171.195625 -104.25 170.375 C-106.88125363 166.80401293 -107.31815645 163.38759942 -107 159 C-105.50198566 154.63985771 -103.0038078 151.29921636 -99 149 C-96.23539582 148.58892796 -93.59086482 148.31317375 -90.8125 148.125 C-68.88710645 146.09981647 -50.17509278 137.58735416 -35.91015625 120.49609375 C-23.16277647 103.11837471 -20.35175258 85.96109715 -20.75 65.0625 C-20.77012041 63.20379555 -20.78836127 61.34506977 -20.8046875 59.48632812 C-20.84818751 54.99034587 -20.9168995 50.49541746 -21 46 C-21.76143311 46.77714355 -22.52286621 47.55428711 -23.30737305 48.35498047 C-26.1417935 51.24381378 -28.9862233 54.122615 -31.83374023 56.99853516 C-33.0633714 58.243227 -34.29029329 59.49060154 -35.5144043 60.74072266 C-37.2772333 62.5400536 -39.04966948 64.32942352 -40.82421875 66.1171875 C-41.36713058 66.67558319 -41.91004242 67.23397888 -42.46940613 67.80929565 C-46.17627965 71.51778396 -49.19561025 73.74667161 -54.46484375 74.22265625 C-59.0734874 73.9241501 -62.2893992 73.42186992 -65.625 70.0625 C-68.32210028 66.33866268 -68.64544953 63.0403936 -68.6015625 58.52734375 C-67.28341926 52.98943027 -63.15088393 48.89807612 -59.23486328 44.96020508 C-58.77574554 44.49597641 -58.31662781 44.03174774 -57.84359741 43.55345154 C-56.34091782 42.03699482 -54.83105108 40.52795646 -53.3203125 39.01953125 C-52.26401295 37.95933927 -51.20793546 36.898926 -50.15206909 35.83830261 C-47.94477303 33.62357067 -45.73367569 31.4127199 -43.52001953 29.2043457 C-40.6915937 26.38172208 -37.8747173 23.54787597 -35.06080818 20.71078968 C-32.88524584 18.52046101 -30.70275898 16.3371352 -28.5182457 14.15573692 C-27.4769554 13.11393524 -26.43800871 12.06978535 -25.40152359 11.0232029 C-23.94942272 9.55869359 -22.48800293 8.10413509 -21.02392578 6.65161133 C-19.78293625 5.40967766 -19.78293625 5.40967766 -18.51687622 4.14265442 C-12.56459019 -0.92461582 -7.40161159 -2.30521237 0 0 Z " fill="#000000" transform="translate(400,127)"/>
<path d="M0 0 C0.886875 0.70125 1.77375 1.4025 2.6875 2.125 C3.32042969 2.61613281 3.95335937 3.10726563 4.60546875 3.61328125 C14.51855872 11.70370177 21.03567366 23.39981934 22.6875 36.125 C23.88238787 51.21832046 19.60938921 64.34155429 9.875 75.9375 C5.89274317 80.15268128 1.78888496 83.37136631 -3.3125 86.125 C-4.21097656 86.61226563 -5.10945313 87.09953125 -6.03515625 87.6015625 C-17.69911914 92.98956084 -32.32398116 93.37485029 -44.4375 89.125 C-58.17077021 82.7824677 -67.94436868 73.26857719 -73.34765625 59.078125 C-77.91561328 45.09684761 -76.83021654 32.60682302 -70.9140625 19.1484375 C-64.46770996 6.97898173 -54.08991653 -1.39644689 -41.19921875 -5.98828125 C-26.45090794 -9.35297125 -13.07080392 -7.39856826 0 0 Z M-46.3125 29.125 C-49.95899988 35.12408044 -50.13062941 41.2890743 -49.3125 48.125 C-47.22149278 54.96012037 -42.8230774 59.84380466 -36.6875 63.4375 C-30.76250864 66.15497724 -24.78447914 66.2090568 -18.59765625 64.27734375 C-12.5360471 61.58835924 -8.26071562 58.12344562 -5.3125 52.125 C-3.05421896 45.65061487 -2.79518061 39.9510149 -5.140625 33.48046875 C-8.20511098 27.32085192 -12.79996742 22.50726757 -19.14453125 19.74609375 C-30.05054202 16.62166904 -39.48761872 20.47653934 -46.3125 29.125 Z " fill="#000000" transform="translate(420.3125,6.875)"/>
<path d="M0 0 C10.89385055 6.78812798 18.4513776 16.53585259 22.39453125 28.828125 C25.60391224 42.74881506 23.67209441 56.33044797 16.76953125 68.828125 C9.97663184 79.3154083 -0.1468723 87.87120553 -12.38671875 91.10546875 C-27.59204795 93.38250443 -41.94273726 92.2212911 -54.65625 83 C-55.27886719 82.53078125 -55.90148437 82.0615625 -56.54296875 81.578125 C-57.40921875 81.000625 -58.27546875 80.423125 -59.16796875 79.828125 C-68.01875573 71.44316891 -74.2692522 60.03848035 -74.8359375 47.83203125 C-75.26306116 30.90008422 -71.67551217 19.70714794 -60.54296875 6.578125 C-43.55586033 -8.85121365 -19.76240031 -11.04994426 0 0 Z M-44.54296875 28.578125 C-48.38450471 34.47601256 -49.75563224 40.63190341 -48.54296875 47.578125 C-46.24778717 54.45351407 -42.66809789 59.6503516 -36.54296875 63.578125 C-30.69562184 66.43682793 -24.06649454 66.69218095 -17.88671875 64.73828125 C-10.52668613 61.44621847 -6.49158633 56.82965427 -3.16796875 49.578125 C-1.53417885 41.73593349 -2.47591534 35.40480199 -6.76171875 28.66015625 C-10.99341956 23.14719047 -16.19609707 20.16302517 -23.09765625 19.234375 C-31.79655417 18.91708997 -38.7925174 22.05904896 -44.54296875 28.578125 Z " fill="#000000" transform="translate(131.54296875,420.421875)"/>
<path d="M0 0 C5.74294502 5.21952367 11.24292765 10.6627678 16.70410156 16.17553711 C17.62191406 17.09786133 18.53972656 18.02018555 19.48535156 18.97045898 C21.72725211 21.2240361 23.96676756 23.47992786 26.20410156 25.73803711 C30.11065716 24.15368334 32.48198262 21.63079075 35.37988281 18.61694336 C36.38285382 17.58867129 37.38611836 16.56068545 38.38964844 15.53295898 C39.95356161 13.91955334 41.51409333 12.30315342 43.0690918 10.68115234 C44.58032956 9.10903363 46.10415699 7.54998798 47.62988281 5.99194336 C48.53134033 5.05680908 49.43279785 4.1216748 50.36157227 3.15820312 C53.97274675 0.08360271 57.61643737 -1.97090752 62.42675781 -2.51196289 C67.73118977 -1.79119082 70.45293641 -0.10461987 74.20410156 3.73803711 C75.09920676 6.42335271 75.42522806 8.26604974 75.51660156 11.05053711 C75.57267578 12.15848633 75.57267578 12.15848633 75.62988281 13.28881836 C74.60218787 19.20042139 69.70136948 23.52077638 65.56347656 27.57397461 C65.03643127 28.09819 64.50938599 28.6224054 63.96636963 29.1625061 C62.30029466 30.81748545 60.62736573 32.46533 58.95410156 34.11303711 C57.81561822 35.24147692 56.67759278 36.37037892 55.54003906 37.49975586 C52.76665644 40.25121919 49.98710922 42.99631094 47.20410156 45.73803711 C53.06396253 52.84942468 59.62539888 59.18631543 66.21191406 65.61889648 C67.08074219 66.47676758 67.94957031 67.33463867 68.84472656 68.21850586 C69.63395508 68.990896 70.42318359 69.76328613 71.23632812 70.55908203 C75.16391949 74.90818289 75.70976404 78.5320933 75.58300781 84.26147461 C74.94336297 88.44224602 73.38858681 89.96891951 70.20410156 92.73803711 C66.36132076 94.70212507 62.66672071 95.31502437 58.36816406 94.55834961 C53.37597951 92.66600528 49.8920896 88.45770889 46.20410156 84.73803711 C44.65791376 83.20349022 43.11097399 81.66970081 41.56347656 80.13647461 C37.08939725 75.69099069 32.64026551 71.22133258 28.20410156 66.73803711 C24.29754596 68.32239088 21.9262205 70.84528347 19.02832031 73.85913086 C18.0253493 74.88740293 17.02208476 75.91538876 16.01855469 76.94311523 C14.45464152 78.55652088 12.8941098 80.1729208 11.33911133 81.79492188 C9.82787357 83.36704059 8.30404614 84.92608624 6.77832031 86.48413086 C5.87686279 87.41926514 4.97540527 88.35439941 4.04663086 89.31787109 C0.43545638 92.39247151 -3.20823424 94.44698173 -8.01855469 94.98803711 C-13.32298665 94.26726504 -16.04473329 92.58069409 -19.79589844 88.73803711 C-20.69100364 86.05272151 -21.01702493 84.21002448 -21.10839844 81.42553711 C-21.14578125 80.6869043 -21.18316406 79.94827148 -21.22167969 79.18725586 C-20.19398474 73.27565283 -15.29316635 68.95529784 -11.15527344 64.90209961 C-10.62822815 64.37788422 -10.10118286 63.85366882 -9.5581665 63.31356812 C-7.89209153 61.65858877 -6.2191626 60.01074422 -4.54589844 58.36303711 C-3.40741509 57.2345973 -2.26938966 56.1056953 -1.13183594 54.97631836 C1.64154668 52.22485502 4.4210939 49.47976328 7.20410156 46.73803711 C1.34424059 39.62664954 -5.21719575 33.28975878 -11.80371094 26.85717773 C-12.67253906 25.99930664 -13.54136719 25.14143555 -14.43652344 24.25756836 C-15.22575195 23.48517822 -16.01498047 22.71278809 -16.828125 21.91699219 C-20.61878354 17.7195198 -21.18545847 14.42917451 -21.04980469 8.92163086 C-20.58104356 4.89028515 -18.79436834 2.63988089 -15.85839844 -0.01196289 C-10.95129525 -2.98596482 -4.83938912 -3.40059848 0 0 Z " fill="#000000" transform="translate(216.7958984375,394.261962890625)"/>
<path d="M0 0 C7.52894174 4.3139735 13.46583457 11.23652578 19.5 17.375 C20.52296535 18.40801986 21.54639961 19.44057558 22.5703125 20.47265625 C25.05229814 22.9764488 27.52789935 25.48644255 30 28 C36.85599144 22.36558715 42.99049341 16.05786215 49.18603516 9.71801758 C50.57274721 8.30118023 51.96596855 6.89072293 53.359375 5.48046875 C54.58865723 4.22592896 54.58865723 4.22592896 55.84277344 2.94604492 C59.471536 -0.32748002 63.0428713 -0.33467878 67.7109375 -0.2890625 C71.23009651 0.15533642 73.3458518 1.73426373 76 4 C78.81791547 8.2268732 79.31374893 11.28759137 78.39697266 16.29125977 C76.67857442 20.8533338 74.37010189 23.27257531 70.8984375 26.58984375 C70.30197418 27.17923233 69.70551086 27.76862091 69.0909729 28.37586975 C67.19713046 30.24189029 65.2866038 32.08969657 63.375 33.9375 C62.08218816 35.20521342 60.79050855 36.47408258 59.5 37.74414062 C56.34627836 40.84295494 53.17748095 43.92556049 50 47 C53.40422281 51.04920538 56.84709042 54.96576532 60.63671875 58.6640625 C61.46107422 59.47617188 62.28542969 60.28828125 63.13476562 61.125 C64.84647663 62.80135049 66.56004134 64.47581012 68.27539062 66.1484375 C69.09587891 66.95796875 69.91636719 67.7675 70.76171875 68.6015625 C71.50381592 69.32682129 72.24591309 70.05208008 73.01049805 70.79931641 C76.67526763 74.85309392 78.67031161 78.50519347 79 84 C78.37846728 88.42842061 77.37132428 91.11714317 73.9375 93.9375 C70.41919671 96.15109915 67.41231939 96.55887648 63.30859375 96.56640625 C57.49887031 95.14100879 53.23284467 90.51317749 49.1640625 86.359375 C48.63984711 85.83232971 48.11563171 85.30528442 47.57553101 84.76226807 C45.92055166 83.09619309 44.27270711 81.42326417 42.625 79.75 C41.49656019 78.61151665 40.36765819 77.47349122 39.23828125 76.3359375 C36.48681792 73.56255488 33.74172617 70.78300766 31 68 C27.02836905 69.59451456 24.39458579 72.36558109 21.46484375 75.375 C20.94491348 75.90013184 20.42498322 76.42526367 19.88929749 76.96630859 C18.23385782 78.63950892 16.58527569 80.31925435 14.9375 82 C13.2852999 83.67986104 11.63164659 85.35822399 9.97499084 87.03369141 C8.94601616 88.07487621 7.91972647 89.11872311 6.89646912 90.16552734 C1.31116368 95.82888203 1.31116368 95.82888203 -2.3046875 96.30078125 C-11.32390746 96.34190231 -11.32390746 96.34190231 -15 93 C-17.65435414 89.06423352 -18.35173503 85.74447891 -18.49609375 81.125 C-17.16241694 75.41224264 -12.42452759 71.14600926 -8.359375 67.1640625 C-7.83232971 66.63984711 -7.30528442 66.11563171 -6.76226807 65.57553101 C-5.09619309 63.92055166 -3.42326417 62.27270711 -1.75 60.625 C-0.61151665 59.49656019 0.52650878 58.36765819 1.6640625 57.23828125 C4.43744512 54.48681792 7.21699234 51.74172617 10 49 C8.41175582 45.03347694 5.64597326 42.43886332 2.625 39.53515625 C1.54675743 38.47733337 0.46863614 37.41938685 -0.609375 36.36132812 C-2.30544389 34.70874189 -4.00391 33.05871373 -5.70507812 31.41137695 C-7.35155497 29.81331187 -8.98860926 28.20603843 -10.625 26.59765625 C-11.13337402 26.11104019 -11.64174805 25.62442413 -12.16552734 25.12306213 C-16.16435745 21.18061642 -17.80637744 18.1298482 -18.3125 12.5625 C-17.87998306 7.63180692 -16.625898 4.47808909 -12.9375 1.125 C-8.62301972 -0.52735415 -4.51440926 -1.11755306 0 0 Z " fill="#000000" transform="translate(170,125)"/>
<path d="M0 0 C1.81775167 1.59863219 3.47285902 3.27311786 5.1232605 5.04391479 C5.73201523 5.66398911 6.34076996 6.28406342 6.9679718 6.92292786 C8.89233298 8.89177899 10.78687833 10.88665096 12.68185425 12.88375854 C13.98791854 14.22998451 15.29584476 15.57440675 16.60568237 16.91696167 C19.79882482 20.19791934 22.96553569 23.50250128 26.11935425 26.82125854 C30.34329776 23.28164747 34.37797477 19.67007562 38.22091675 15.71188354 C39.1232605 14.79278198 40.02560425 13.87368042 40.95529175 12.92672729 C42.35716755 11.4914735 43.75898592 10.05614556 45.1545105 8.61471558 C46.52391152 7.20287838 47.90355114 5.80099488 49.28341675 4.39938354 C50.49698853 3.15269897 50.49698853 3.15269897 51.7350769 1.88082886 C54.75305368 -0.7261394 57.40092153 -2.0904658 61.40060425 -2.29592896 C66.39617834 -1.75063742 69.57999808 -1.03985727 73.11935425 2.82125854 C75.46226954 6.54862378 75.49485799 10.14467023 74.82614136 14.39425659 C72.39659365 22.73696254 62.17937975 29.87772809 56.18185425 35.82125854 C55.20180114 36.79628241 54.22198184 37.77154134 53.24240112 38.74703979 C50.87033112 41.10742472 48.49594564 43.46542759 46.11935425 45.82125854 C49.66534572 50.18276765 53.40849516 54.12490805 57.4826355 58.00094604 C58.46136583 58.93952429 59.43987793 59.87833014 60.41818237 60.81735229 C61.9273916 62.26483567 63.44123417 63.70496285 64.97409058 65.12741089 C74.62109473 74.10788356 74.62109473 74.10788356 75.3576355 79.77438354 C75.4168309 84.10728484 74.34410721 87.11333694 72.11935425 90.82125854 C68.43954344 93.88776755 64.86618497 94.65757473 60.11935425 94.82125854 C54.3722843 92.89011152 50.91277905 90.16674058 46.7482605 85.84078979 C46.18106796 85.26793747 45.61387543 84.69508514 45.02949524 84.10487366 C43.23725561 82.29041651 41.45950698 80.46249741 39.68185425 78.63375854 C38.46208568 77.39390615 37.24139105 76.15496407 36.01974487 74.91696167 C33.04213708 71.8954809 30.07743611 68.86185316 27.11935425 65.82125854 C20.06184876 71.62260477 13.81597229 78.14937896 7.50216675 84.74118042 C-2.25368656 94.69719182 -2.25368656 94.69719182 -9.35720825 94.88766479 C-13.22756282 93.97989072 -16.1225088 93.09915434 -18.88064575 90.13375854 C-21.13704084 86.39660417 -21.88064575 84.18216036 -21.88064575 79.82125854 C-19.93473785 74.07718141 -17.22908774 70.61753284 -12.900177 66.45016479 C-12.32732468 65.88297226 -11.75447235 65.31577972 -11.16426086 64.73139954 C-9.34980371 62.93915991 -7.52188462 61.16141128 -5.69314575 59.38375854 C-4.45329335 58.16398997 -3.21435128 56.94329535 -1.97634888 55.72164917 C1.0451319 52.74404138 4.07875964 49.77934041 7.11935425 46.82125854 C1.53417737 40.00846729 -4.73459133 33.95539271 -11.08718872 27.86154175 C-12.50138399 26.50203252 -13.90213071 25.12857764 -15.30252075 23.75485229 C-16.54920532 22.54913574 -16.54920532 22.54913574 -17.82107544 21.31906128 C-20.51261818 18.05481593 -21.73534446 14.88155641 -22.0329895 10.66110229 C-21.60027439 6.82960665 -21.08082462 5.07704266 -18.63064575 1.94625854 C-13.04977512 -2.3662324 -6.38372497 -4.00115825 0 0 Z " fill="#000000" transform="translate(366.8806457519531,329.1787414550781)"/>
<path d="M0 0 C3.97108701 2.36575396 5.85325363 4.51726419 7 9 C7.45046276 14.04518286 7.05252262 16.92996984 4 21 C1.61236111 23.78557871 -0.32957941 24.74425731 -4.015625 25.30859375 C-8.65879958 25.57646921 -11.3621234 25.22407468 -15 22.1875 C-18.31521019 19.07949045 -18.9359821 16.78101841 -19.3125 12.1875 C-19.23976647 7.79116191 -17.94665267 5.33437012 -15 2 C-10.08086983 -1.54634966 -5.67852809 -1.5401174 0 0 Z " fill="#000000" transform="translate(126,316)"/>
<path d="M0 0 C1.15628906 0.11794922 1.15628906 0.11794922 2.3359375 0.23828125 C6.5940433 1.07391635 8.2943259 2.24958025 10.9375 5.75 C12.88801361 9.46526402 12.98845873 12.43493961 12.30859375 16.53515625 C11.15993933 20.15177673 9.36826794 22.07486386 6.625 24.6875 C2.55986443 26.04254519 -1.12445232 26.22425858 -5.375 25.6875 C-9.1776029 23.6824912 -10.99290841 22.26063738 -13.375 18.6875 C-14.7113738 13.78746275 -14.33386302 10.37173765 -12.375 5.6875 C-8.67203954 1.67509995 -5.4673424 -0.6084916 0 0 Z " fill="#000000" transform="translate(158.375,283.3125)"/>
<path d="M0 0 C3.8026029 2.0050088 5.61790841 3.42686262 8 7 C9.41561574 12.66246294 8.79239531 15.89665684 6 21 C3.64500093 23.79656139 2.48686467 24.83771178 -1 26 C-6.21481396 26.39357087 -9.68830816 26.06609197 -14 23 C-16.8616882 19.25049889 -18.36819062 15.55969558 -18.0625 10.8125 C-15.57331134 1.88070541 -8.61048916 -1.2195744 0 0 Z " fill="#000000" transform="translate(261,276)"/>
<path d="M0 0 C4.0370939 1.86902495 5.63885333 3.4244225 8 7.1875 C9.26792653 12.02146989 8.91931893 15.40396274 7 20 C4.4001194 23.19985305 2.90350005 24.69883332 -1 26 C-6.22596788 26.39441267 -9.59166842 25.90549127 -14 23 C-16.72159428 19.52762108 -17.73114094 16.39136462 -18 12 C-16.9688926 6.94757374 -14.84641251 4.36561095 -11 1 C-7.52060261 -0.73969869 -3.80413782 -0.44829907 0 0 Z " fill="#000000" transform="translate(211,276)"/>
<path d="M0 0 C3.61632582 2.83016803 5.95253151 5.49588548 7 10 C6.92196457 14.91623227 6.51101302 17.16379688 3.9375 21.375 C0.42189236 24.51660683 -2.27404978 25.88319895 -7 26 C-11.6806565 24.59580305 -14.9089184 22.80440812 -18 19 C-19.75267445 13.74197664 -19.77111783 9.6347698 -17.4375 4.6875 C-12.61750198 -0.62685679 -6.75773469 -2.32829514 0 0 Z " fill="#000000" transform="translate(112,363)"/>
</svg>
